<svg id="directory" width="150" height="150" fill="none" viewBox="0 0 48 40">
  <path stroke="#fff" d="M6 1.5h13m-14 1h1m-2 1h1m-2 1h1m-2 1h1m-2 1h1m-1 2h45M1.5 9v29"/>
  <path fill="#9B9930" d="M6 1h13V0H6v1zM5 2h1V1H5v1zm14 0h1V1h-1v1zM4 3h1V2H4v1zm16 0h1V2h-1v1zM3 4h1V3H3v1zm18 0h1V3h-1v1zM2 5h1V4H2v1zm20 0h1V4h-1v1zM1 6h1V5H1v1zm22 0h1V5h-1v1zm1 1h1V6h-1v1zM0 6v33h1V6H0zm2 33h44v-1H2v1zm45 0V9h-1v30h1zM45 7H25v1h20V7z"/>
  <path stroke="#000" d="M19 .5h1m0 1h1m0 1h1m0 1h1m0 1h1m0 1h1m0 1h1m19 1h1m0 1h1m.5.5v30m-.5.5H0"/>
  <path fill="#FFFEA7" d="M6 3h14V2H6v1zM5 4h16V3H5v1zM4 5h18V4H4v1zM3 6h20V5H3v1zM2 7h22V6H2v1zm0 3h36V9H2v1zm37 0h2V9h-2v1zm3 0h1V9h-1v1zm2 0h1V9h-1v1zM2 11h28v-1H2v1zm29 0h2v-1h-2v1zm3 0h1v-1h-1v1zm2 0h1v-1h-1v1zm2 0h2v-1h-2v1zm3 0h3v-1h-3v1zm4 0h1v-1h-1v1zM2 12h26v-1H2v1zm27 0h3v-1h-3v1zm4 0h6v-1h-6v1zm7 0h2v-1h-2v1zm4 0h1v-1h-1v1zM2 13h22v-1H2v1zm23 0h1v-1h-1v1zm2 0h4v-1h-4v1zm5 0h2v-1h-2v1zm3 0h1v-1h-1v1zm2 0h1v-1h-1v1zm2 0h1v-1h-1v1zm2 0h1v-1h-1v1zm2 0h1v-1h-1v1zm2 0h1v-1h-1v1zM2 14h27v-1H2v1zm28 0h5v-1h-5v1zm6 0h1v-1h-1v1zm2 0h2v-1h-2v1zm3 0h2v-1h-2v1zm3 0h1v-1h-1v1zM2 15h25v-1H2v1zm26 0h2v-1h-2v1zm3 0h1v-1h-1v1zm2 0h1v-1h-1v1zm2 0h4v-1h-4v1zm5 0h1v-1h-1v1zm3 0h1v-1h-1v1zm2 0h1v-1h-1v1zM2 16h19v-1H2v1zm20 0h1v-1h-1v1zm2 0h1v-1h-1v1zm2 0h9v-1h-9v1zm10 0h1v-1h-1v1zm3 0h1v-1h-1v1zm2 0h2v-1h-2v1zm3 0h1v-1h-1v1zM2 17h25v-1H2v1zm26 0h1v-1h-1v1zm2 0h1v-1h-1v1zm2 0h1v-1h-1v1zm2 0h2v-1h-2v1zm3 0h2v-1h-2v1zm8 0h1v-1h-1v1zM2 18h17v-1H2v1zm18 0h4v-1h-4v1zm5 0h7v-1h-7v1zm8 0h1v-1h-1v1zm2 0h2v-1h-2v1zm3 0h1v-1h-1v1zm2 0h2v-1h-2v1zm3 0h1v-1h-1v1zM2 19h20v-1H2v1zm21 0h2v-1h-2v1zm3 0h1v-1h-1v1zm2 0h1v-1h-1v1zm2 0h1v-1h-1v1zm2 0h3v-1h-3v1zm5 0h1v-1h-1v1zm2 0h1v-1h-1v1zm2 0h1v-1h-1v1zm2 0h1v-1h-1v1zm2 0h1v-1h-1v1zM2 20h15v-1H2v1zm16 0h12v-1H18v1zm13 0h2v-1h-2v1zm4 0h2v-1h-2v1zm3 0h1v-1h-1v1zm2 0h1v-1h-1v1zm2 0h1v-1h-1v1zm2 0h1v-1h-1v1zM2 21h17v-1H2v1zm18 0h1v-1h-1v1zm2 0h1v-1h-1v1zm2 0h1v-1h-1v1zm2 0h1v-1h-1v1zm2 0h1v-1h-1v1zm2 0h2v-1h-2v1zm3 0h2v-1h-2v1zm3 0h1v-1h-1v1zm2 0h1v-1h-1v1zm2 0h1v-1h-1v1zm3 0h1v-1h-1v1zM2 22h13v-1H2v1zm14 0h12v-1H16v1zm13 0h1v-1h-1v1zm2 0h1v-1h-1v1zm2 0h1v-1h-1v1zm2 0h1v-1h-1v1zm2 0h1v-1h-1v1zm2 0h1v-1h-1v1zm2 0h1v-1h-1v1zm3 0h1v-1h-1v1zM2 23h15v-1H2v1zm16 0h3v-1h-3v1zm4 0h1v-1h-1v1zm2 0h1v-1h-1v1zm2 0h1v-1h-1v1zm2 0h3v-1h-3v1zm4 0h1v-1h-1v1zm2 0h1v-1h-1v1zm2 0h1v-1h-1v1zm2 0h1v-1h-1v1zm3 0h1v-1h-1v1zm2 0h1v-1h-1v1zm2 0h1v-1h-1v1zM2 24h18v-1H2v1zm19 0h5v-1h-5v1zm6 0h2v-1h-2v1zm4 0h1v-1h-1v1zm2 0h2v-1h-2v1zm3 0h1v-1h-1v1zm2 0h1v-1h-1v1zm2 0h1v-1h-1v1zm2 0h1v-1h-1v1zM2 25h10v-1H2v1zm11 0h1v-1h-1v1zm2 0h2v-1h-2v1zm3 0h1v-1h-1v1zm2 0h2v-1h-2v1zm3 0h1v-1h-1v1zm2 0h2v-1h-2v1zm3 0h3v-1h-3v1zm4 0h1v-1h-1v1zm3 0h1v-1h-1v1zm2 0h1v-1h-1v1zm2 0h1v-1h-1v1zm4 0h1v-1h-1v1zm2 0h1v-1h-1v1zM2 26h21v-1H2v1zm22 0h1v-1h-1v1zm2 0h2v-1h-2v1zm4 0h2v-1h-2v1zm3 0h2v-1h-2v1zm3 0h1v-1h-1v1zm4 0h2v-1h-2v1zM2 27h14v-1H2v1zm15 0h2v-1h-2v1zm3 0h1v-1h-1v1zm2 0h5v-1h-5v1zm6 0h2v-1h-2v1zm4 0h1v-1h-1v1zm3 0h1v-1h-1v1zm2 0h1v-1h-1v1zm2 0h1v-1h-1v1zm3 0h1v-1h-1v1zm2 0h1v-1h-1v1zM2 28h8v-1H2v1zm9 0h2v-1h-2v1zm3 0h1v-1h-1v1zm2 0h2v-1h-2v1zm3 0h1v-1h-1v1zm2 0h2v-1h-2v1zm3 0h1v-1h-1v1zm3 0h1v-1h-1v1zm2 0h1v-1h-1v1zm2 0h2v-1h-2v1zm3 0h1v-1h-1v1zm4 0h1v-1h-1v1zm3 0h1v-1h-1v1zM2 29h15v-1H2v1zm16 0h4v-1h-4v1zm5 0h1v-1h-1v1zm2 0h2v-1h-2v1zm3 0h1v-1h-1v1zm2 0h1v-1h-1v1zm3 0h1v-1h-1v1zm2 0h2v-1h-2v1zm4 0h1v-1h-1v1zm4 0h1v-1h-1v1zm2 0h1v-1h-1v1zM2 30h5v-1H2v1zm6 0h3v-1H8v1zm4 0h2v-1h-2v1zm3 0h4v-1h-4v1zm5 0h1v-1h-1v1zm2 0h3v-1h-3v1zm4 0h1v-1h-1v1zm2 0h1v-1h-1v1zm2 0h2v-1h-2v1zm4 0h1v-1h-1v1zm3 0h1v-1h-1v1zm3 0h1v-1h-1v1zm2 0h1v-1h-1v1zM2 31h7v-1H2v1zm8 0h2v-1h-2v1zm3 0h2v-1h-2v1zm3 0h1v-1h-1v1zm2 0h2v-1h-2v1zm3 0h2v-1h-2v1zm4 0h1v-1h-1v1zm2 0h1v-1h-1v1zm2 0h1v-1h-1v1zm3 0h2v-1h-2v1zm4 0h1v-1h-1v1zm2 0h1v-1h-1v1zm6 0h1v-1h-1v1zM2 32h12v-1H2v1zm13 0h4v-1h-4v1zm5 0h2v-1h-2v1zm3 0h3v-1h-3v1zm4 0h1v-1h-1v1zm2 0h1v-1h-1v1zm2 0h1v-1h-1v1zm4 0h1v-1h-1v1zm5 0h1v-1h-1v1zm2 0h1v-1h-1v1zM2 33h3v-1H2v1zm4 0h2v-1H6v1zm3 0h2v-1H9v1zm3 0h4v-1h-4v1zm5 0h1v-1h-1v1zm2 0h1v-1h-1v1zm2 0h1v-1h-1v1zm2 0h1v-1h-1v1zm3 0h1v-1h-1v1zm2 0h1v-1h-1v1zm2 0h1v-1h-1v1zm2 0h1v-1h-1v1zm2 0h1v-1h-1v1zm2 0h1v-1h-1v1zm2 0h1v-1h-1v1zm2-16h4v-1h-4v1zM2 34h10v-1H2v1zm11 0h1v-1h-1v1zm2 0h2v-1h-2v1zm3 0h3v-1h-3v1zm4 0h1v-1h-1v1zm2 0h2v-1h-2v1zm3 0h1v-1h-1v1zm2 0h1v-1h-1v1zm4 0h1v-1h-1v1zm6 0h1v-1h-1v1zm2 0h1v-1h-1v1zm3 0h1v-1h-1v1zM2 35h6v-1H2v1zm7 0h1v-1H9v1zm2 0h5v-1h-5v1zm6 0h2v-1h-2v1zm4 0h1v-1h-1v1zm2 0h1v-1h-1v1zm3 0h1v-1h-1v1zm2 0h1v-1h-1v1zm3 0h2v-1h-2v1zm4 0h1v-1h-1v1zm2 0h1v-1h-1v1zm5 0h1v-1h-1v1zM2 36h2v-1H2v1zm3 0h1v-1H5v1zm2 0h6v-1H7v1zm7 0h1v-1h-1v1zm2 0h2v-1h-2v1zm3 0h2v-1h-2v1zm3 0h1v-1h-1v1zm2 0h2v-1h-2v1zm4 0h1v-1h-1v1zm2 0h1v-1h-1v1zm4 0h1v-1h-1v1zm5 0h1v-1h-1v1zM2 37h6v-1H2v1zm7 0h1v-1H9v1zm2 0h1v-1h-1v1zm2 0h1v-1h-1v1zm2 0h2v-1h-2v1zm3 0h1v-1h-1v1zm2 0h2v-1h-2v1zm3 0h1v-1h-1v1zm3 0h2v-1h-2v1zm4 0h1v-1h-1v1zm2 0h1v-1h-1v1zm4 0h1v-1h-1v1zm2 0h1v-1h-1v1zm3 0h1v-1h-1v1zM2 38h1v-1H2v1zm2 0h2v-1H4v1zm3 0h4v-1H7v1zm5 0h3v-1h-3v1zm4 0h1v-1h-1v1zm2 0h1v-1h-1v1zm3 0h1v-1h-1v1zm2 0h2v-1h-2v1zm5 0h1v-1h-1v1zm3 0h1v-1h-1v1zm2 0h1v-1h-1v1zm11 0h1v-1h-1v1z"/>
  <path stroke="#F8CEA1" d="M38 9.5h1m2 0h1m1 0h1m1 0h1m-16 1h1m2 0h1m1 0h1m1 0h1m2 0h1m3 0h1m-17 1h1m3 0h1m6 0h1m2 0h2m1 0h1m-22 1h1m1 0h1m4 0h1m2 0h1m1 0h1m1 0h1m1 0h1m1 0h1m1 0h1m-16 1h1m5 0h1m1 0h1m2 0h1m2 0h1m1 0h1m-19 1h1m2 0h1m1 0h1m1 0h1m4 0h1m1 0h2m1 0h1m-24 1h1m1 0h1m1 0h1m9 0h1m1 0h2m1 0h1m2 0h1m1 0h1m-19 1h1m1 0h1m1 0h1m1 0h1m2 0h1m2 0h1m1 0h2m1 0h1m-26 1h1m4 0h1m7 0h1m1 0h1m2 0h1m1 0h1m2 0h1m1 0h2m-24 1h1m2 0h1m1 0h1m1 0h1m1 0h1m3 0h2m1 0h1m1 0h1m1 0h1m1 0h1m-28 1h1m12 0h1m2 0h2m2 0h1m1 0h1m1 0h1m1 0h1m1 0h1m-27 1h1m1 0h1m1 0h1m1 0h1m1 0h1m1 0h1m2 0h1m2 0h1m1 0h1m1 0h1m1 0h2m1 0h2m-31 1h1m12 0h1m1 0h1m1 0h1m1 0h1m1 0h1m1 0h1m1 0h1m1 0h2m1 0h1m-29 1h1m3 0h1m1 0h1m1 0h1m1 0h1m3 0h1m1 0h1m1 0h1m1 0h1m1 0h2m1 0h1m1 0h1m-25 1h1m5 0h1m2 0h2m1 0h1m2 0h1m1 0h1m1 0h1m1 0h1m1 0h3m-34 1h1m1 0h1m2 0h1m1 0h1m2 0h1m1 0h1m2 0h1m3 0h1m1 0h2m1 0h1m1 0h1m1 0h3m1 0h1m-22 1h1m1 0h1m2 0h2m2 0h1m2 0h1m1 0h3m2 0h4m-30 1h1m2 0h1m1 0h1m5 0h1m2 0h2m1 0h2m1 0h1m1 0h1m1 0h2m1 0h1m1 0h1m-36 1h1m2 0h1m1 0h1m2 0h1m1 0h1m2 0h1m1 0h2m1 0h1m1 0h1m2 0h1m1 0h3m1 0h2m1 0h4m-29 1h1m4 0h1m1 0h1m2 0h1m1 0h1m1 0h2m1 0h1m2 0h2m1 0h3m1 0h1m-38 1h1m3 0h1m2 0h1m4 0h1m1 0h1m3 0h1m1 0h1m1 0h1m2 0h2m1 0h2m1 0h2m1 0h1m1 0h3m-37 1h1m2 0h1m2 0h1m1 0h1m2 0h1m2 0h2m1 0h1m1 0h1m1 0h2m2 0h2m1 0h1m1 0h5m1 0h1m-32 1h1m4 0h1m2 0h1m3 0h1m1 0h1m1 0h1m1 0h3m1 0h4m1 0h1m1 0h3m-41 1h1m2 0h1m2 0h1m4 0h1m1 0h1m1 0h1m1 0h1m1 0h2m1 0h1m1 0h1m1 0h1m1 0h1m1 0h1m1 0h1m1 0h7m-34 1h1m1 0h1m2 0h1m3 0h1m1 0h1m2 0h1m1 0h1m1 0h3m1 0h5m1 0h1m1 0h2m1 0h1m-38 1h1m1 0h1m5 0h1m2 0h2m1 0h1m1 0h2m1 0h1m1 0h2m2 0h2m1 0h1m1 0h4m1 0h3m-42 1h1m1 0h1m6 0h1m1 0h1m2 0h1m2 0h1m1 0h1m2 0h2m1 0h1m1 0h3m1 0h4m1 0h6m-38 1h1m1 0h1m1 0h1m1 0h1m2 0h1m1 0h1m2 0h1m1 0h2m2 0h2m1 0h1m1 0h3m1 0h1m1 0h2m1 0h4m-43 1h1m2 0h1m4 0h1m3 0h1m1 0h1m1 0h2m1 0h1m2 0h3m1 0h2m1 0h1m1 0h10m1 0h1"/>
  <path stroke="#CECC74" d="M1 7.5h24m-24 31h1"/>
</svg>