<svg width="29" height="23" viewBox="0 0 29 23" fill="none">
<path d="M18 1H26V0H18V1ZM16 2H28V1H16V2ZM15 3H29V2H15V3ZM15 4H18V3H15V4ZM21 4H23V3H21V4ZM26 4H29V3H26V4ZM15 5H17V4H15V5ZM21 5H23V4H21V5ZM27 5H29V4H27V5ZM15 6H17V5H15V6ZM21 6H23V5H21V6ZM27 6H29V5H27V6ZM15 7H17V6H15V7ZM21 7H23V6H21V7ZM27 7H29V6H27V7ZM15 8H17V7H15V8ZM21 8H23V7H21V8ZM27 8H29V7H27V8ZM15 9H17V8H15V9ZM19 9H25V8H19V9ZM27 9H29V8H27V9ZM15 10H29V9H15V10ZM15 11H29V10H15V11ZM15 12H18V11H15V12ZM21 12H23V11H21V12ZM26 12H29V11H26V12ZM15 13H17V12H15V13ZM21 13H23V12H21V13ZM27 13H29V12H27V13ZM15 14H17V13H15V14ZM21 14H23V13H21V14ZM27 14H29V13H27V14ZM15 15H17V14H15V15ZM21 15H23V14H21V15ZM27 15H29V14H27V15ZM15 16H17V15H15V16ZM21 16H23V15H21V16ZM27 16H29V15H27V16ZM15 17H17V16H15V17ZM19 17H25V16H19V17ZM27 17H29V16H27V17ZM15 18H29V17H15V18ZM15 19H29V18H15V19ZM15 20H19V19H15V20ZM25 20H29V19H25V20ZM15 21H17V20H15V21ZM27 21H29V20H27V21Z" fill="black"/>
<path d="M25 3.49999H26M25 8.49999H26" stroke="#387E22"/>
<path d="M25 3.50001H23M27 4.50001H23M27 5.50001H23M27 6.50001H23M27 7.50001H23M27 8.50001H26" stroke="#75F94C"/>
<path d="M19 3.49999H21M17 4.49999H21M17 5.49999H21M17 6.49999H21M17 7.49999H21M17 8.49999H18" stroke="#EB3223"/>
<path d="M18 3.5H19M18 8.5H19" stroke="#76140C"/>
<path d="M19 11.5H21M17 12.5H21M17 13.5H21M17 14.5H21M17 15.5H21M17 16.5H18" stroke="#0023F5"/>
<path d="M18 11.5H19M18 16.5H19" stroke="#000C7C"/>
<path d="M25 11.5H23M27 12.5H23M27 13.5H23M27 14.5H23M27 15.5H23M27 16.5H26" stroke="#FFFD54"/>
<path d="M25 11.5H26M25 16.5H26" stroke="#818026"/>
<path d="M13.5 2V5M12.5 3V5M11.5 3V6M9.5 3V6M8.5 4V7M6.5 4V6M5.5 5V7M3.5 3V5M2.5 4V6M0.5 2V4M0.5 10V12M3.5 11V13M2.5 12V14M5.5 13V15M6.5 12V14M8.5 12V15M9.5 11V14M13.5 10V13M12.5 11V13M11.5 11V14M13.5 18V21M12.5 19V21M11.5 19V22M9.5 19V22M8.5 20V23M6.5 20V22M5.5 21V23M3.5 19V21M2.5 20V22M0.5 18V20" stroke="black"/>
<path d="M13.5 14V17M12.5 15V17M11.5 15V18M9.5 15V18M8.5 16V19M6.5 16V18M5.5 17V19M3.5 15V17M2.5 16V18M0.5 14V16" stroke="#0023F5"/>
<path d="M0.5 6V8M3.5 7V9M2.5 8V10M6.5 8V10M5.5 9V11M9.5 7V10M8.5 8V11M11.5 7V10M12.5 7V9M13.5 6V9" stroke="#EB3223"/>
</svg>
